<svg width="240" height="160" viewBox="0 0 240 160" fill="none" xmlns="http://www.w3.org/2000/svg">
  <!-- Background elements - charts and graphs -->
  <rect x="20" y="20" width="40" height="30" stroke="#37352f" stroke-width="1.5" fill="none" rx="2"/>
  <line x1="25" y1="40" x2="55" y2="40" stroke="#37352f" stroke-width="1.5"/>
  <line x1="25" y1="35" x2="50" y2="35" stroke="#37352f" stroke-width="1.5"/>
  <line x1="25" y1="45" x2="45" y2="45" stroke="#37352f" stroke-width="1.5"/>
  
  <circle cx="180" cy="30" r="15" stroke="#37352f" stroke-width="1.5" fill="none"/>
  <line x1="180" y1="15" x2="180" y2="45" stroke="#37352f" stroke-width="1.5"/>
  <line x1="165" y1="30" x2="195" y2="30" stroke="#37352f" stroke-width="1.5"/>
  
  <!-- Table -->
  <rect x="30" y="100" width="180" height="4" fill="#37352f"/>
  
  <!-- Person 1 (left) - Woman -->
  <circle cx="60" cy="85" r="8" stroke="#37352f" stroke-width="1.5" fill="none"/>
  <rect x="55" y="93" width="10" height="20" stroke="#37352f" stroke-width="1.5" fill="none" rx="1"/>
  <line x1="50" y1="100" x2="55" y2="100" stroke="#37352f" stroke-width="1.5"/>
  <line x1="70" y1="100" x2="75" y2="100" stroke="#37352f" stroke-width="1.5"/>
  <!-- Laptop -->
  <rect x="50" y="110" width="30" height="18" stroke="#37352f" stroke-width="1.5" fill="none" rx="1"/>
  <rect x="52" y="112" width="26" height="12" fill="#37352f" opacity="0.2"/>
  <line x1="55" y1="128" x2="75" y2="128" stroke="#37352f" stroke-width="1.5"/>
  
  <!-- Person 2 (center) - Man -->
  <circle cx="120" cy="85" r="8" stroke="#37352f" stroke-width="1.5" fill="none"/>
  <rect x="115" y="93" width="10" height="20" stroke="#37352f" stroke-width="1.5" fill="none" rx="1"/>
  <line x1="110" y1="100" x2="115" y2="100" stroke="#37352f" stroke-width="1.5"/>
  <line x1="130" y1="100" x2="135" y2="100" stroke="#37352f" stroke-width="1.5"/>
  <!-- Documents -->
  <rect x="110" y="110" width="20" height="25" stroke="#37352f" stroke-width="1.5" fill="none" rx="1"/>
  <line x1="113" y1="115" x2="127" y2="115" stroke="#37352f" stroke-width="1"/>
  <line x1="113" y1="120" x2="125" y2="120" stroke="#37352f" stroke-width="1"/>
  <line x1="113" y1="125" x2="127" y2="125" stroke="#37352f" stroke-width="1"/>
  
  <!-- Person 3 (right) - Woman -->
  <circle cx="180" cy="85" r="8" stroke="#37352f" stroke-width="1.5" fill="none"/>
  <rect x="175" y="93" width="10" height="20" stroke="#37352f" stroke-width="1.5" fill="none" rx="1"/>
  <line x1="170" y1="100" x2="175" y2="100" stroke="#37352f" stroke-width="1.5"/>
  <line x1="190" y1="100" x2="195" y2="100" stroke="#37352f" stroke-width="1.5"/>
  <!-- Laptop -->
  <rect x="170" y="110" width="30" height="18" stroke="#37352f" stroke-width="1.5" fill="none" rx="1"/>
  <rect x="172" y="112" width="26" height="12" fill="#37352f" opacity="0.2"/>
  <line x1="175" y1="128" x2="195" y2="128" stroke="#37352f" stroke-width="1.5"/>
  
  <!-- Additional background elements -->
  <path d="M200 50 Q210 45 220 50" stroke="#37352f" stroke-width="1.5" fill="none"/>
  <path d="M200 55 Q210 50 220 55" stroke="#37352f" stroke-width="1.5" fill="none"/>
</svg>